<svg xmlns="http://www.w3.org/2000/svg" viewBox="0 0 163.81 35.68"><defs><style>.cls-1{fill:#fff;}</style></defs><g id="Capa_2" data-name="Capa 2"><g id="Teléfono_móvil_gris_espacial" data-name="Teléfono móvil gris espacial"><g id="_TU_PANTALLA_AQUÍ_" data-name="[TU PANTALLA AQUÍ]"><rect class="cls-1" x="0.03" y="0.34" width="163.75" height="35" rx="11.29" transform="translate(-0.08 0.39) rotate(-0.27)"/><path d="M33.23,14.73l0,4.7a4.15,4.15,0,0,0,.34,2.05A2.07,2.07,0,0,0,35.3,22a4.09,4.09,0,0,0,2.2-.53,2.69,2.69,0,0,0,1.12-1.6.8.8,0,0,1,.83-.67,1.33,1.33,0,0,1,1.06.48A1.84,1.84,0,0,1,40.93,21a4.6,4.6,0,0,1-1.11,2.73,2.83,2.83,0,0,1-.63.63,1.21,1.21,0,0,1-.65.17l-2.72-.26-8.56,0a3.05,3.05,0,0,1-1.19-.16.76.76,0,0,1-.51-.7.52.52,0,0,1,.17-.43,3.47,3.47,0,0,1,.8-.4,1.49,1.49,0,0,0,.89-.78,10.92,10.92,0,0,0,.15-2.45c0-.63,0-1.54-.08-2.72s-.07-2-.08-2.56a3.06,3.06,0,0,0-.16-1.13,1,1,0,0,0-.65-.43,4.94,4.94,0,0,1-1-.37.72.72,0,0,1-.39-.59c0-.5.49-.88,1.47-1.14A13.65,13.65,0,0,1,30,10.05a23.92,23.92,0,0,1,3.56.19c1,.18,1.52.55,1.52,1.1a.6.6,0,0,1-.2.51,4.13,4.13,0,0,1-1,.44.91.91,0,0,0-.59.6A8.79,8.79,0,0,0,33.23,14.73Z"/><path d="M52.55,19.55l-5.76,0c-.25,0-.38.1-.38.28a1.6,1.6,0,0,0,.87,1.25,3.19,3.19,0,0,0,1.86.58A5.53,5.53,0,0,0,51.63,21a1.33,1.33,0,0,1,.66-.25.81.81,0,0,1,.62.32,1,1,0,0,1,.31.68c0,.49-.36,1-1.09,1.43a8.34,8.34,0,0,1-4.49,1.24,7.16,7.16,0,0,1-4.32-1.23,5.36,5.36,0,0,1-1.41-1.48,4.54,4.54,0,0,1-.73-2.44,4.44,4.44,0,0,1,1.23-3.1,6.61,6.61,0,0,1,2.74-1.79,7.89,7.89,0,0,1,2.7-.45,6.81,6.81,0,0,1,4,1.09,4.71,4.71,0,0,1,1.33,1.3A3.07,3.07,0,0,1,53.73,18a1.76,1.76,0,0,1-.32,1.09A1,1,0,0,1,52.55,19.55ZM47.1,17.66h1.24c.52,0,.78-.21.78-.61a1.17,1.17,0,0,0-.38-.9,1.45,1.45,0,0,0-1-.35,1.37,1.37,0,0,0-1.07.46,1.29,1.29,0,0,0-.37.85.47.47,0,0,0,.18.43A1.18,1.18,0,0,0,47.1,17.66Z"/><path d="M69.39,17.64l.19,3.61a1.25,1.25,0,0,0,.15.6,5.75,5.75,0,0,0,.76.75.61.61,0,0,1,.19.46c0,.45-.32.76-1,1a15.15,15.15,0,0,1-3.45.28,7.86,7.86,0,0,1-2.39-.24c-.49-.17-.73-.44-.73-.82a.53.53,0,0,1,.07-.31c0-.06.21-.22.49-.48s.48-1.24.48-2.87a4.43,4.43,0,0,0-.4-2.09,1.27,1.27,0,0,0-1.18-.54,1.29,1.29,0,0,0-1.13.45,3,3,0,0,0-.3,1.6v2a2.5,2.5,0,0,0,.1.83,4.54,4.54,0,0,0,.61.87.75.75,0,0,1,.14.42c0,.4-.34.7-1,.9a12.89,12.89,0,0,1-3.14.3c-2.27,0-3.41-.38-3.41-1.16a.59.59,0,0,1,.1-.38,2,2,0,0,1,.5-.37.91.91,0,0,0,.4-.44,8.1,8.1,0,0,0,.15-1.24c0-.78.08-1.6.07-2.45a2.1,2.1,0,0,0-.13-.93,1.94,1.94,0,0,0-.74-.53c-.35-.19-.53-.41-.53-.68a.77.77,0,0,1,.42-.67,8.92,8.92,0,0,1,1.76-.67c.79-.24,1.54-.44,2.27-.6A7.74,7.74,0,0,1,60.24,14a.89.89,0,0,1,.62.22.73.73,0,0,1,.26.53s0,.11,0,.26,0,.1,0,.15a.44.44,0,0,0,.5.49,1,1,0,0,0,.62-.4,3.73,3.73,0,0,1,3.05-1.28,4.88,4.88,0,0,1,2.65.66A2.79,2.79,0,0,1,69,15.73,5.7,5.7,0,0,1,69.39,17.64Z"/><path d="M84.36,13.23a.68.68,0,0,1,.54.29,1,1,0,0,1,.24.68,2,2,0,0,1-.31,1,2.59,2.59,0,0,1-.75.85c-.19.14-.28.25-.28.33s0,.1,0,.24a3.22,3.22,0,0,1,0,.39,2.6,2.6,0,0,1-1,2.06,6.47,6.47,0,0,1-2.27,1.16,10.58,10.58,0,0,1-3.06.42,6.87,6.87,0,0,1-.79,0l-.49,0c-.44,0-.65.18-.65.54a.6.6,0,0,0,.43.55,2.74,2.74,0,0,0,1.14.2c.33,0,.81-.05,1.45-.12a25.78,25.78,0,0,1,3-.25,5,5,0,0,1,2.25.39,2.47,2.47,0,0,1,1,.85,2.1,2.1,0,0,1,.38,1.19,3,3,0,0,1-.9,2,6.46,6.46,0,0,1-3.16,1.72,15.35,15.35,0,0,1-3.8.45A11.67,11.67,0,0,1,73,27.4a3.33,3.33,0,0,1-1.26-.85,1.68,1.68,0,0,1-.47-1.11,1.24,1.24,0,0,1,.26-.74,1.54,1.54,0,0,1,.67-.48q.36-.12.36-.27t-.3-.33a1.84,1.84,0,0,1-1-1.42,1.51,1.51,0,0,1,.47-1,3.14,3.14,0,0,1,1.16-.82c.2-.08.3-.17.3-.25s-.13-.24-.37-.43a2.83,2.83,0,0,1-1.28-2.27A2.27,2.27,0,0,1,72,16.11,3.64,3.64,0,0,1,73.22,15a8.94,8.94,0,0,1,4.37-1.1,13,13,0,0,1,2.13.19,11.74,11.74,0,0,0,1.54.18,4.73,4.73,0,0,0,2.65-.89A1,1,0,0,1,84.36,13.23Zm-9.27,11.5a.27.27,0,0,0-.3.3c0,.4.26.72.79,1a4.72,4.72,0,0,0,2,.37,5.44,5.44,0,0,0,1.88-.28c.46-.18.68-.43.68-.75a.54.54,0,0,0-.26-.44,1.15,1.15,0,0,0-.64-.17,4.66,4.66,0,0,0-.56,0,10.25,10.25,0,0,1-1.53.1c-.42,0-.82,0-1.2,0s-.52,0-.7-.08A.72.72,0,0,0,75.09,24.73Zm2.63-9.35a1.32,1.32,0,0,0-1,.4,1.44,1.44,0,0,0-.37,1,3.41,3.41,0,0,0,.41,1.77,1.22,1.22,0,0,0,1.07.66,1.33,1.33,0,0,0,1-.42,1.61,1.61,0,0,0,.37-1.12,3.05,3.05,0,0,0-.41-1.7A1.31,1.31,0,0,0,77.72,15.38Z"/><path d="M92.56,14.33l0,5.56c0,1.19.48,1.78,1.42,1.77a1.48,1.48,0,0,0,.7-.17,1,1,0,0,0,.47-.42,5.39,5.39,0,0,0,.26-2.19,12.64,12.64,0,0,0-.14-2.3.75.75,0,0,0-.18-.37,1.72,1.72,0,0,0-.46-.27c-.47-.2-.71-.46-.71-.78s.4-.72,1.2-.89a22.51,22.51,0,0,1,4.49-.49c.83,0,1.24.36,1.25,1.09,0,.08,0,.23,0,.46s0,.73,0,1.2l0,4.53c0,.23.24.44.71.63s.6.4.6.71c0,.62-.86,1.1-2.6,1.44a15.44,15.44,0,0,1-3,.31,1.85,1.85,0,0,1-.8-.11.51.51,0,0,1-.26-.44c0-.42-.2-.63-.47-.63a.66.66,0,0,0-.27.06l-.74.42a5.39,5.39,0,0,1-2.66.72,4.17,4.17,0,0,1-3.32-1.12,5,5,0,0,1-.84-3.21c0-.56,0-1,0-1.44v-.47a3.17,3.17,0,0,0-.19-1.29,1.32,1.32,0,0,0-.7-.65,2,2,0,0,1-.6-.33.42.42,0,0,1-.13-.33c0-.52.46-.87,1.4-1.05a26.9,26.9,0,0,1,4.8-.46Q92.56,13.82,92.56,14.33Z"/><path d="M109.85,13.65a6.78,6.78,0,0,1,3.62.89,2.8,2.8,0,0,1,1.1,1.09,3.83,3.83,0,0,1,.32,1.71l0,1.53a5.08,5.08,0,0,0,.28,2.06.71.71,0,0,0,.26.28,1.8,1.8,0,0,0,.52.11.4.4,0,0,1,.39.43,1.57,1.57,0,0,1-.47,1,3.65,3.65,0,0,1-1.21.9,4.45,4.45,0,0,1-1.92.46,2.79,2.79,0,0,1-2-.73.7.7,0,0,0-.48-.27,1.49,1.49,0,0,0-.65.26,5.76,5.76,0,0,1-5.38.2,2.93,2.93,0,0,1-1-1,2.51,2.51,0,0,1-.39-1.27,2.39,2.39,0,0,1,1-1.9,7.56,7.56,0,0,1,4.79-1.32,2.22,2.22,0,0,0,.9-.12c.12-.08.18-.27.18-.55a3.56,3.56,0,0,0-.28-1.58.94.94,0,0,0-.88-.48,1.14,1.14,0,0,0-.66.19,3.53,3.53,0,0,0-.71.68,3,3,0,0,1-2.28,1.31,1.54,1.54,0,0,1-1-.29,1,1,0,0,1-.38-.78,1.43,1.43,0,0,1,.47-1,4.21,4.21,0,0,1,1.27-.86A11.26,11.26,0,0,1,109.85,13.65Zm-.79,5.94a1.34,1.34,0,0,0-.94.38,1.16,1.16,0,0,0-.39.88,1.09,1.09,0,0,0,.28.79,1,1,0,0,0,.75.3c.66,0,1-.46,1-1.39a1.55,1.55,0,0,0-.15-.76A.67.67,0,0,0,109.06,19.59Z"/><path d="M123.94,14.48l0,9.08a6.9,6.9,0,0,1-.25,2.13,2.37,2.37,0,0,1-.88,1.2,5.52,5.52,0,0,1-1.65.72,8.14,8.14,0,0,1-2.08.28,4.54,4.54,0,0,1-2-.39q-.81-.39-.81-1a.58.58,0,0,1,.22-.46.81.81,0,0,1,.55-.2l.39,0,.31,0a.53.53,0,0,0,.39-.18.54.54,0,0,0,.18-.39,1.3,1.3,0,0,0,0-.29,3,3,0,0,1-.09-.7l0-6.51a1.23,1.23,0,0,0-.19-.72,1.32,1.32,0,0,0-.66-.41c-.47-.15-.7-.39-.7-.7a1.12,1.12,0,0,1,.56-.94,5.84,5.84,0,0,1,1.83-.75c.61-.16,1.34-.31,2.2-.45a13.46,13.46,0,0,1,1.93-.21.83.83,0,0,1,.6.18A1,1,0,0,1,123.94,14.48Zm-2.62-4.66a3.7,3.7,0,0,1,1.7.33,1,1,0,0,1,.62.89,1.39,1.39,0,0,1-.93,1.26,8.12,8.12,0,0,1-3.61.74,3,3,0,0,1-1.43-.28,1.14,1.14,0,0,1-.71-1c0-.59.5-1.05,1.5-1.39A9.12,9.12,0,0,1,121.32,9.82Z"/><path d="M137.42,19.15l-5.76,0c-.25,0-.38.09-.38.27a1.6,1.6,0,0,0,.87,1.26,3.27,3.27,0,0,0,1.86.58,5,5,0,0,0,1.3-.2,4.53,4.53,0,0,0,1.18-.47,1.4,1.4,0,0,1,.66-.25.86.86,0,0,1,.63.33,1,1,0,0,1,.31.67c0,.49-.36,1-1.1,1.43A8.29,8.29,0,0,1,132.5,24a7.15,7.15,0,0,1-4.31-1.23,5.36,5.36,0,0,1-1.41-1.48,4.53,4.53,0,0,1-.73-2.43,4.47,4.47,0,0,1,1.23-3.11A6.59,6.59,0,0,1,130,14a8.14,8.14,0,0,1,2.7-.46,6.88,6.88,0,0,1,4,1.09A4.75,4.75,0,0,1,138,16a3,3,0,0,1,.58,1.68,1.75,1.75,0,0,1-.33,1.09A1,1,0,0,1,137.42,19.15ZM132,17.26h1.24c.52,0,.78-.2.78-.61a1.14,1.14,0,0,0-.39-.9,1.4,1.4,0,0,0-1-.34,1.38,1.38,0,0,0-1.44,1.31.49.49,0,0,0,.18.43A1.18,1.18,0,0,0,132,17.26Z"/></g></g></g></svg>