<svg xmlns="http://www.w3.org/2000/svg" viewBox="0 0 99.45 130.46"><defs><style>.cls-1{fill:#1e2617;}.cls-2{fill:#313a22;}.cls-3{fill:#505252;}.cls-4{fill:#565758;}.cls-5{fill:#dacea1;}.cls-6{fill:#fdfdfd;}.cls-7{fill:#c2cfcf;}.cls-8{fill:#c0b583;}.cls-9{fill:#d8cd9e;}.cls-10{fill:#4d4b43;}.cls-11{fill:#beb382;}.cls-12{fill:#cfc598;}.cls-13{fill:#48463c;}.cls-14{fill:#fdffff;}.cls-15{fill:#c1cdce;}.cls-16{fill:#5a564c;}.cls-17{fill:#4c4f50;}.cls-18{fill:#393b3c;}.cls-19{fill:#4e372d;}.cls-20{fill:#545757;}.cls-21{fill:#808586;}.cls-22{fill:#fff;}.cls-23{fill:#4a2d2c;}.cls-24{fill:#3c3c3c;}.cls-25{fill:#444;}.cls-26{fill:#3a3a3b;}.cls-27{fill:#463f3e;}.cls-28{fill:#575655;}.cls-29{fill:#c1cecf;}.cls-30{fill:#3a3d3d;}.cls-31{fill:#e9eaea;}.cls-32{fill:#525454;}.cls-33{fill:#3f3f3f;}.cls-34{fill:#b63a3f;}.cls-35{fill:#422624;}.cls-36{fill:#dc4648;}.cls-37{fill:#9b3335;}.cls-38{fill:#b7bfc0;}.cls-39{fill:#fafafb;}.cls-40{fill:#c1cdcd;}.cls-41{fill:#d74548;}.cls-42{fill:#b5c2c3;}.cls-43{fill:#5e6363;}.cls-44{fill:#c4d0d0;}.cls-45{fill:#bfcbcc;}.cls-46{fill:#553935;}.cls-47{fill:#bbc5c5;}.cls-48{fill:#868f8f;}.cls-49{fill:#818989;}.cls-50{fill:#f5f5f6;}.cls-51{fill:#c4cdce;}.cls-52{fill:#d84448;}.cls-53{fill:#9a3234;}.cls-54{fill:#9d3335;}.cls-55{fill:#ebecec;}.cls-56{fill:#c53f43;}.cls-57{fill:#923034;}</style></defs><g id="Capa_2" data-name="Capa 2"><g id="Teléfono_móvil_gris_espacial" data-name="Teléfono móvil gris espacial"><g id="_TU_PANTALLA_AQUÍ_" data-name="[TU PANTALLA AQUÍ]"><path class="cls-1" d="M56.81,18.81a10.87,10.87,0,0,1,4.64,1.35c.86.27,1.74.54,1.74,1.74,0,1.41-.78,2.55-1.19,3.81a6.37,6.37,0,0,0,0,4.41C63,33,64.11,33.6,66.78,32.41c1.14-.51,2.18-1.35,3.54-1.1a1.37,1.37,0,0,1,.89.92c.85,3.9,1.51,7.8.67,11.81-.28,1.34.44,2.32,1.23,3.29a63.54,63.54,0,0,1,4.53,6,5.24,5.24,0,0,1,.74,2.18,4.42,4.42,0,0,1-.45,1.78c-1.91,3.85-5.47,5.44-9,7.09-2.32.69-4.63,1.09-6.89-.17-3.31-2.78-4.09-7-5.69-10.77-1.21-2.86-1.56-6.05-3-8.81a5.29,5.29,0,0,0-1.4-.49,1.58,1.58,0,0,1-.7-.86,2.08,2.08,0,0,0-.56-2.07c-1.19-1.52-1.19-3.33-1.25-5.16-.11-3.69.54-7.46-.83-11-.93-2.13-3.14-1.78-4.75-2.61a22.44,22.44,0,0,0-8.33.1,47.49,47.49,0,0,1-7.19,1.37c-.68-.1-1.59-.18-1.64-1-.07-1,.91-1.24,1.63-1.48a35.44,35.44,0,0,1,18.29-1c2.5.51,4.6.61,6.65-1A3.29,3.29,0,0,1,56.81,18.81Z"/><path class="cls-2" d="M48.46,17.07a.25.25,0,0,0,.42.05c2.58.89,5.42.44,7.93,1.69-2.56-.17-3.78,2.56-6.1,3.06a3.43,3.43,0,0,1-2.15.12c-7.22-2.6-14.33-1.36-21.43,1l1.36.2a1.08,1.08,0,0,1-.81,1.1c-3.83,1.07-7.27,3.24-11.12,4.24a1.37,1.37,0,0,1-1.43-1c0-.2-.07-.49,0-.58,3.32-2.6,2.48-6.37,2.62-9.87a2.18,2.18,0,0,1,1.11-1.46,1,1,0,0,1,1.06.68c.06.39,0-.09.11.27.66,1.67-.81,4.22,1,5,1.54.68,3.07-1.42,4.71-2a9.52,9.52,0,0,0,4.37-2.1c1.22.2,2.45.72,3.64-.14a42,42,0,0,1,12-1.2A3.6,3.6,0,0,1,48.46,17.07Z"/><path class="cls-3" d="M62.69,22c.07-1-.83-1.23-1.24-1.84.91.18,1.41-.29,1.83-1.08C68.15,9.88,75.92,4.5,85.22,1.15,88.31.7,91.33-.72,94.53.45c2.26,1.21,3.24,3.38,4,5.7,1.84,3.8.57,7.1-1.54,10.26A12.61,12.61,0,0,1,95.32,18C91.63,20.33,88,22.75,84.1,24.8a84,84,0,0,0-7.63,4.79c-1.35.89-2.74,1.73-4.13,2.55-.49.22-1,.6-1.48,0l-.67-.56c0-1.53,1.31-1.89,2.26-2.53,6.3-4.27,13-7.78,19.44-11.9,5.18-3.33,6.33-8.28,3.27-13.8A5.25,5.25,0,0,0,90,2.13C79.61,4.4,70.89,9.2,65.39,19.09,64.75,20.26,64.35,21.8,62.69,22Z"/><path class="cls-4" d="M18.92,15.79c.14-4.24,1.76-8,3.67-11.61l2.27-2.45L26.75.92C31.08-.82,33.6,1.14,33.3,6c0,.8-.07,1.61-.1,2.42a9.85,9.85,0,0,1-1.32,7.25c-.47,1.33-1.47,2.93,1.25,2.61-1.27,1.31-2.11.42-2.91-.62-1-1.09-.42-2.29-.18-3.43.57-2.56,1-5.15,1.42-7.73.26-1.5.14-2.79-1.12-3.76C26.63,2,24.72,4.46,23.16,7.25a22,22,0,0,0-2.24,6.88c-.16.92,0,2.14-1.33,2.37Z"/><path class="cls-5" d="M16.6,28.05a109.4,109.4,0,0,1,11.89-4.86l7-1.37a41.28,41.28,0,0,1,8.82,0c1.48,1.08,3.89.2,4.81,2.46,1,3.78.57,7.64.46,11.47-.11,3.66-1.19,4.57-4.68,4.81-10.25.72-20.17,2.89-29.5,7.5a9.82,9.82,0,0,0-2.61,2,13,13,0,0,1-2.25,1.43c-3.43,2-5,1.06-5.35-3.06a39.7,39.7,0,0,1,.71-8.78C6.57,32.85,11,29.89,16.6,28.05Z"/><path class="cls-6" d="M62.69,22c.75-1.17,1.56-2.31,2.25-3.53C70.5,8.69,79.16,3.7,89.53,1.45,91.73,1,94,.73,95.67,3c1.7,4.47,0,8.08-2.66,11.48-4.35,5.46-10.52,8.08-16.27,11.34a54.12,54.12,0,0,1-8.62,4c-.82.28-1.76.86-2.48,0s-.2-2,.29-2.81c3-5.19,7-9.32,12.52-11.61,3-1.25,5.86-2.87,8.86-4.15,1-.41,2.25-1,1.72-2.39C88.61,7.71,87.36,8,86.4,8.1c-2.16.29-4.1,1.35-6.14,2.08A43.09,43.09,0,0,0,67.32,21.76a15,15,0,0,0-1.86,3.43c-.54,1.24-.83,2.57-1.27,3.85-.38.64-.53,1.62-1.53,1.43s-1.12-1-1.31-1.77a5,5,0,0,1,.07-3.17Z"/><path class="cls-7" d="M61.42,25.53c.13,1.08.21,2.17.42,3.23.12.54.38,1.34,1,1.22.37-.08.61-.88.91-1.36,1.18-.52.68-1.91,1.28-2.73,2.54-6.24,7.24-10.43,12.47-14.1.87-.61,2-.93,2.25-2.19,2.62-1,5.12-2.49,8-2.37,1.08,0,2.28-.1,2.56,1.42a2.42,2.42,0,0,1-1.54,2.69c-3.09,1.53-6.2,3.07-9.38,4.39A26.17,26.17,0,0,0,66,28.4a1,1,0,0,0,0,1.27,47.57,47.57,0,0,0,10.06-4.44c5-2.92,10.43-5.14,14.7-9.43,3.59-3.6,5.4-7.66,4.84-12.82,3.45,5.42,2.26,11.29-3.09,14.63-7,4.35-14,8.6-21,12.91a14.34,14.34,0,0,0-1.37,1.1c-1-.06-1.53.81-2.29,1.22-3.88,2.07-6.19.94-6.88-3.52C60.83,28.06,60.52,26.7,61.42,25.53Z"/><path class="cls-7" d="M51.42,43.37l.65.58c1.21,2.71,1.18,5.72,1.82,8.56.83,3.68,1.48,7.42,3.16,10.78,1.3,2.59.62,4.24-1.56,5.61C51.4,71.32,47.44,74,42.81,75.26c-1.13.31-2.23.87-3.44.38-1-1-.17-1.43.53-1.65.89-.27.1-.63.16-.94,1.13-1.52,2.95-1.29,4.45-1.87,1.92-.73,3-1.69,1.51-3.82,2.81-2.66,3.43-6.29,3.82-9.89a46.13,46.13,0,0,0,0-10.57,13.66,13.66,0,0,0-.95-3,.91.91,0,0,1,.41-.8A1.71,1.71,0,0,1,51.42,43.37Z"/><path class="cls-8" d="M12.45,49.52C15.24,46.19,19.33,45.46,23,44c7.47-2.9,15.3-4,23.23-4.33,1.43-.06,2-.7,2.3-2.15,1-4.41.5-8.86.58-13.29,1.75,4.21,1,8.69,1.2,13.06.09,1.68.19,3.22,1.73,4.19-.27,1.65-1.6,1-2.5,1.24a65.17,65.17,0,0,1-7.26.28c-8.83.11-17.18,2.57-25.41,5.62C15.46,49.18,14.14,50.4,12.45,49.52Z"/><path class="cls-9" d="M53.37,43.47c1.82,1.68,1.89,4.17,2.6,6.33,1.58,4.82,3,9.69,6.09,13.78.15,2-.32,3.44-2.6,3.43-2.38-1.9-3.17-4.76-4.06-7.51a89.13,89.13,0,0,1-2.72-12.66C52.49,45.72,52.24,44.39,53.37,43.47Z"/><path class="cls-10" d="M53.37,43.47c.38,8.24,1.21,16.34,6.37,23.16,6.16.86,11.52-1.07,16.26-5.09,1-1.37,2.2-2.68,1.42-4.64L78,55.61c2.19,1.45,1.79,3.35.75,5.27a13.7,13.7,0,0,1-4.35,4.45c-.85,1.38-2.33,1.77-3.61,2.47a18.6,18.6,0,0,1-12.1,1c-1.16-.28-1.57,0-1.48,1.16-1.37.53-2.09-.06-2.32-1.47,2.12-1.35,2.41-2.74,1.3-5.35A49.72,49.72,0,0,1,52.07,44Z"/><path class="cls-11" d="M76.62,61.71c-4.07,4.7-12.49,7.15-16.88,4.92,1.7-.25,1.52-2,2.32-3,2.35,1.22,4.71.53,7.06,0,1.87.27,3.18-1.19,4.82-1.66C74.85,61.67,75.65,60.91,76.62,61.71Z"/><path class="cls-12" d="M76.62,61.71c-1.81.68-3.62,1.33-5.42,2-.74.3-1.44.76-2.08-.16,3.19-1.66,6.56-3.09,8.3-6.69C79.94,59,77.6,60.24,76.62,61.71Z"/><path class="cls-13" d="M49.63,42.18c.77-.36,1.83.44,2.42-.67,1.2,1.14-.58,1.18-.63,1.86L49,43.45a5.56,5.56,0,0,1-5.74.12c-.38-1.38.65-1,1.28-1.1C46.24,42.3,48,42.74,49.63,42.18Z"/><path class="cls-2" d="M44.31,21.8l-8.82,0A14.82,14.82,0,0,1,44.31,21.8Z"/><path class="cls-14" d="M22.39,6.93c2.16-4.15,4.78-5.81,8.32-5.13a5.59,5.59,0,0,1,.72,4.09,44.39,44.39,0,0,1-3.81,12.42A3.44,3.44,0,0,1,26,20c-1.85,1.22-4.17,3.46-5.74,2.67s-.45-4-.69-6.2"/><path class="cls-15" d="M26,20c2.47-5.82,5.17-11.58,4.69-18.23,1.84,1,1.76,2.79,1.49,4.49-.59,3.8-1.31,7.58-2,11.37C29.52,19.79,27.67,19.72,26,20Z"/><path class="cls-16" d="M14.11,28l1.22-.71c.2.65.74.71,1.27.76-1,.63-2,1.29-3,1.87C10,32,7.17,34.64,6.62,39.18a1.48,1.48,0,0,1-1-.84c-.75-4.51,2.44-6.51,5.18-8.8C11.73,28.66,13,28.54,14.11,28Z"/><path class="cls-4" d="M16,126.11l-1.13-6.75c.22-.41.42-.85,1-.69a2.19,2.19,0,0,1,.86,1.84c.22,5.15,3.18,7.24,7.76,7.54,2.77.79,5.42-.26,8.1-.65,1.5-.22,1.84-1.61,2-3s-.22-3.07.76-4.41c2.43.46.87,2.41,1.26,3.64.23,1.49-.37,2.86-.63,4.28-3,3-6.87,1.8-10.38,2.37C22.07,129.73,18.45,129.36,16,126.11Z"/><path class="cls-17" d="M63.14,126.55l-3.52,2-6.42,1.91c-2.64,0-5.28.06-7.92,0-4.55-.12-7.2-2.61-8.07-7.2a1.67,1.67,0,0,1,.16-2.78c1.12.25,1.25,1.32,1.65,2.16,1.56,4.78,2.64,5.53,7.41,5.75,5,.23,9.79-.36,14.32-2.78a4.83,4.83,0,0,0,2.88-4.83A53.73,53.73,0,0,0,61.88,109c-.39-1.64-.61-3.21.38-4.7.94-.83,1.28,0,1.71.65.33.82,0,1.74.34,2.76.84-.13,1-1,1.41-1.47.63-1.07,1.3-2.2.45-3.38s-1.59.37-2.42.13a1.37,1.37,0,0,1-.74-1c.33-1.93,1.64-3.2,2.88-4.48A8.4,8.4,0,0,0,68,89.08a63.73,63.73,0,0,0-3.48-10,8.58,8.58,0,0,1-1.05-3.14,4.09,4.09,0,0,1,.9-2.63c2.09.86,1.34,3.35,2.52,4.74,1.35,3.26,2.46,6.61,3.52,10a11.55,11.55,0,0,1,.47,5.68A8.05,8.05,0,0,1,69,97.37c-1.78,1.63-1.48,3.24-.4,5a5.51,5.51,0,0,1-.87,5.19c-2.6,3.17-2.34,6.69-1.51,10.35a16.37,16.37,0,0,1,.07,5.18C66,124.93,65.22,126.42,63.14,126.55Z"/><path class="cls-18" d="M37.29,120.51c-.14.9-.52,1.79-.08,2.72l-.59.41c-1.19-.94.1-2.74-1.18-3.64-4,1.15-7.7.06-11.35-1.51-1.22-1.73-.85-2.93,1.26-2.43,3.36.8,6.78,1.23,10.14,2C36.66,118.31,37.83,118.79,37.29,120.51Z"/><path class="cls-13" d="M6,38.46l.64.72c-.13,3-.78,6-.55,9.08.31,4,.71,4.32,4.06,2.54.78-.42,1.55-.85,2.32-1.28a97.86,97.86,0,0,1,24.55-7c1.64-.23,3.31-.23,5-.34,0,1.36-1.15,1.33-1.91,1.77-3.52,1-7.19,1.16-10.72,2.12-1.7.46-3.49.67-4.91,1.91-.85.88-.44,2.2-1,3.16-1.51.69-1.37-.63-1.54-1.44s-.37-1.35-1.2-.55a2.58,2.58,0,0,1-1.12.25,2.56,2.56,0,0,0-2.23,1.2c-.35.48-.79,1.2-1.35,1-2.38-.83-4.07.89-6,1.6a17.39,17.39,0,0,1-2.68.43c-3.43-1.51-3-4.77-3.14-7.7-.06-1.58.45-3.17.51-4.78A3.4,3.4,0,0,1,6,38.46Z"/><path class="cls-19" d="M18.55,40.27a1.22,1.22,0,0,1-.22,0c-.63,0-1-.68-.85-1,1.35-2.18-3.11-3.07-1.06-5.26.83-.89,6.67-2.22,7.74-1.9.34.1.85.35.88.6.23,1.52-1.93,2.15-1.24,4.06,1,2.84-1.05,1.8-2.4,2C20.43,38.89,19.53,39.72,18.55,40.27Z"/><path class="cls-20" d="M79.75,9.6c.3,0,.72-.14.86,0,.75.8-.15,1-.54,1.2a38.78,38.78,0,0,0-9.48,7.57,27.44,27.44,0,0,0-5.09,7.73c-1.07,0-.78-.62-.57-1.23,2.45-6,7.15-9.9,12.14-13.48C77.94,10.77,78.86,10.2,79.75,9.6Z"/><path class="cls-21" d="M64.93,24.88c.11.45,0,1,.57,1.23a19,19,0,0,1-1,2.81c-.51,1-.6,0-.77-.3A7.81,7.81,0,0,1,64.93,24.88Z"/><path class="cls-22" d="M20.59,48.87c-.25-1.07.43-1.44,1.23-1.52,1.27-.12.61.95.7,1.49.16.87,0,1.81.5,2.61,1.72,2.26,2.5,5,5,7,5.62,4.39,17.12.94,19.68-6,.75-2,.82-4.45,2.63-6a34.74,34.74,0,0,1-1.77,19.48c-.49,1.25-1.84,1-2.38,2,.24,2.22-1.22,3-2.86,3.56-4.88,1.69-10,2.49-15,3.5,3.49-.66,7-1.28,10.44-2.12a1.47,1.47,0,0,1,1.35.42c.09.31,1.25,0,.48.76-.45.48-1.3.47-1.57,1.25-.38,1.84-2.13,1.1-3.13,1.79-2.46.57-4.89,1.25-7.37,1.72a17.62,17.62,0,0,1-10.55-1.11,23.2,23.2,0,0,1-4.28-2.54c-.56-.41-1.24-.8-1.48-1.42-1.16-3-2-6.13-3.19-9.16-.13-.35.17-.76.42-1.08,1.75-.41,3.38.87,5.18.37,3.15-.89,5.09-3.62,5.35-7.53C20.11,53.86,19.34,51.27,20.59,48.87Z"/><path class="cls-22" d="M23.62,47.66c.11-1.47,1.35-1.26,2.2-1.51a76.74,76.74,0,0,1,14.33-2.7,1.79,1.79,0,0,0,3,0,14.49,14.49,0,0,1,5.83,0l.12.66c.93,4.44-.73,8.38-3.29,11.44C42.17,59.92,34.59,62.43,29,59.12,24.8,56.67,23,52.87,23.62,47.66Z"/><path class="cls-23" d="M36,76.42l3-1.11c6-.63,10.83-4,15.9-6.85.72.65,1.29,1.59,2.47,1.25a5.23,5.23,0,0,1,7,3.65c-.13.84.31,1.8-.54,2.46-4.7-2.17-8.75.19-12.8,2.12a29.29,29.29,0,0,1-6,2.32,38.49,38.49,0,0,0-6.84,1.64,2.24,2.24,0,0,1-2.18.17,1.82,1.82,0,0,1-.71-1.69c1-1.39,2.62-1.24,4-1.54a32.79,32.79,0,0,0,10-3.49c3.76-.63,7-3.33,10.62-3.32-2.83-.85-6-1.68-8.89.75A31.28,31.28,0,0,1,37.5,77.49,2,2,0,0,1,36,76.42Z"/><path class="cls-24" d="M23.62,47.66c1,8.68,5.18,12.85,12.21,12.2,7.3-.67,11.89-5.52,13.17-13.93.09-.6.09-1.21.13-1.82,2.09-.13.72,1.6,1.17,2.34-.74,2.31-1.3,4.72-2.26,6.93-3.68,8.42-16.13,10.59-22.29,4A9.74,9.74,0,0,1,23,51.45C23.32,50.2,22.6,48.78,23.62,47.66Z"/><path class="cls-25" d="M40.08,73.3c-4.79.76-9.46,2.3-14.35,2.62-.09-1.33.7-1.25,1.34-1.37,5.28-1,10.62-1.82,15.77-3.56a4.45,4.45,0,0,0,3.31-3c.74,0,1.64-.38,2,.69s-.37,1.47-1,2C45,72.15,42.41,72.39,40.08,73.3Z"/><path class="cls-26" d="M43.18,43.42c-.26,1-.38,2.35-1.69,2.32s-.9-1.51-1.34-2.29L42,42.15a34.42,34.42,0,0,1,7.66,0C47.68,43.69,45.1,41.68,43.18,43.42Z"/><path class="cls-27" d="M13.64,96.07c-.66-1.79-1.84-.7-2.84-.54-.53.32-.77,0-1-.46.08-1.89-1.06-2.65-2.6-3.14-.72-.23-1.71-.49-1.43-1.55s1.34-.9,2.2-.75c.39.07.75.27,1.13.34.68.13,1.6,1,2-.11.31-.88-.53-1.41-1.32-1.7-.38-.13.06.1-.28-.1-.93-.56-2.87-.34-2.49-1.93s2.08-1,3.24-.64c1.44.48,2.55.68,2.38-1.5a1.06,1.06,0,0,1,.76-.94,2,2,0,0,1,2.16,1.12,5.63,5.63,0,0,1-.14,1.73c-.6,2.13-1.9,4-1.87,6.28A21.56,21.56,0,0,1,16.06,86a4.59,4.59,0,0,1,2.8-1.88,1.35,1.35,0,0,1,.76.31c.25,1.31-.86,1.91-1.36,2.83-1.14,2.15-2.66,4.2-1.89,6.92a1.93,1.93,0,0,1,.49,1.15c-.32,1.61-.37,3.32-1.58,4.6-.53-.08-.84-.3-.55-.91C14.44,98,15.27,96.53,13.64,96.07Z"/><path class="cls-28" d="M14.73,99l.64.76c1.19,1.27,1,2.86.77,4.34a35,35,0,0,0,0,10.66,4.55,4.55,0,0,1-.61,3.79l-.65.83A51.41,51.41,0,0,1,14.73,99Z"/><path class="cls-22" d="M15.51,118.53c-.85-6.25-.5-12.52-.14-18.79.4-1.62,0-3.5,1.41-4.78a1,1,0,0,1,.65-.47c1.95.94,1.53,3.25,2.55,4.73,0,1.42-1.49,2.66-.48,4.19,1.4-.25,2.28-1.78,3.81-1.69,2.35.32,1.05,3,2.29,3.94,6.1-6.58,11.25-13.57,10.19-23.44.09-.11.18-.22.26-.34.72.31,1.14-.31,1.68-.57a62.89,62.89,0,0,0,6.94-1.46c3.08,0,5.52-1.9,8.24-2.95,3.62-1.41,3.6-1.46,6,1.81a8.74,8.74,0,0,1,1.39,1.8,42.33,42.33,0,0,1,3.62,7.74c.35,2.61-.92,4.26-3,5.43a61.83,61.83,0,0,1-6.51,2.87c-.8.33-1.74.72-2.18-.59.16-2.15,1.61-3.51,2.86-5,.57-.69,1.79-1.09,1.11-2.41-1-1.41-2.94-2.29-2.41-4.57a3,3,0,0,1,.7-1.53C53,84,53.24,86.73,51,87.84c-.54.27.07,1.17.39,1.59a5.5,5.5,0,0,1,.14,7c-1.21,1.81-.13,2.17,1.32,2.34A13,13,0,0,1,57.78,102c1.2,1.13,1.56,2.43-.06,3.53a9.62,9.62,0,0,0-3.16,4.31,13.14,13.14,0,0,1-6.19,6.27,5.18,5.18,0,0,0-3.06,4.35,31.64,31.64,0,0,1-.59,4.55c-.75,2.39-2.08,2.74-4,1.19-1.2-1-1.35-2.68-2.52-3.65l-.94-2c-.08-1.63-1.09-1.86-2.42-2-3.32-.26-6.66-.51-9.79-1.87-.51-.23-1.1-.71-1.43.18-.21.56.35.88.6,1.29a25.49,25.49,0,0,1,3.57,4c1.06,1.6,1.74,3.2.65,5s-2.56,2-4.33,1.53c-6-.65-7.1-1.68-8.07-7.81C15.94,120.07,15.7,119.31,15.51,118.53Z"/><path class="cls-29" d="M24.14,128.67c4.59-.76,5.31-2.7,2.67-6.63-.86-1.28-2.48-2.06-2.56-3.9A60.67,60.67,0,0,0,35.44,120c.23,8.27-.25,8.82-8.13,9A6.12,6.12,0,0,1,24.14,128.67Z"/><path class="cls-7" d="M38.23,122.56c1.41.2,1.46,1.8,2.39,2.5.76.58,1.26,1.87,2.36,1.53s1.11-1.79,1.29-2.82c.3-1.79.47-3.61.61-5.42.08-1,.49-2,1.31-2.22,4.63-1.35,7.05-4.87,8.86-9.13a3,3,0,0,1,1.38-1.51c3-1.26,1.57-2.51,0-3.69-1.23-.94-2.57-1.76-3.86-2.63.91-1,2-.69,3-.29C58.31,100,61.21,101,62.66,104a11.32,11.32,0,0,0,.33,6.15,53.31,53.31,0,0,1,1.46,10.26c.26,3.21-1,4.9-3.65,6.13a29.2,29.2,0,0,1-16.09,2.61C40.79,128.75,38.77,126.47,38.23,122.56Z"/><path class="cls-29" d="M52.62,95.54c.11.35.15,1,.64.76,2.52-1.11,5-2.3,7.5-3.47a4,4,0,0,0,2.43-4.68c.31-3.2-1.85-5.34-3.11-7.87-.37-.62-.57-1.64-1.6-.75C56.21,76,56.2,76,52.33,77.71c-2.39,1.09-4.69,2.44-7.41,2.42-.19-.12-.25-.24-.19-.36s.14-.17.2-.17c4-1.66,8-3.24,11.93-5,2.65-1.17,5-.94,7,1.21a93.48,93.48,0,0,1,4.82,13c1,3.61.3,6.54-2.3,9.1a13.34,13.34,0,0,0-3.14,4.31c-1.09.8-1.84-.1-2.6-.62-2.28-1.56-4.61-3-7.43-3.12a1.54,1.54,0,0,1-1.64-1.39C51.49,96.32,51.39,95.4,52.62,95.54Z"/><path class="cls-30" d="M52.62,95.54c-.54.69-1.33,2-.17,2.08,4.18.24,7.32,2.78,10.8,4.59l.6.68a2.08,2.08,0,0,1,.9,1.41c-.07.58-.11,1.2-1,1L62.66,104c-3-2.33-6-4.82-10.07-4.87l-3.26-.28c-.41-1.25,1.14-1,1.38-1.93.59-2.34,2.77-4.5.09-7-.71-.65-.81-2-1.35-3.47,1.19.27,2.24,1.3,2.62-.66a7.39,7.39,0,0,1,4-5.6c0,1.73-1.52,2.3-1.78,3.52a21.84,21.84,0,0,0-1,5.63c1-.67,1.07-2,2.08-2.14,1.37-.23.44,1.47,1.32,1.64,1.83-.26,1,.58.41,1.17C55.56,91.8,53.67,93.29,52.62,95.54Z"/><path class="cls-31" d="M64.19,104.15l-.34-1.26c.94-.23.83-2.64,2.31-1.43,1.87,1.51,1.26,3.35.07,5.07C64.35,106.85,65.25,104.6,64.19,104.15Z"/><path class="cls-32" d="M2.5,65.46c1.64-1.55,3.56-1.34,5.9-.64V57.61c0-1.52,1.84-3.35-.68-4.47.65-.94,1.6-.47,2.43-.56,1.51,3-.24,6,0,8.92-.09.77-.4,1.48-.48,2.25a2.46,2.46,0,0,0,.67,2.72,3.54,3.54,0,0,1,1.09,2.06c-.37,5,3.19,6.56,6.45,8.46a1.26,1.26,0,0,1-.82.92c-1.67,0-2.85-1.09-4.17-1.87-.42-.25-.9-.58-1.26,0s0,1.12.62,1.35c1.71.67,3.24,1.76,5,2.45A1.82,1.82,0,0,1,18,80.88c-.61,1.37-.36,3.41-2.56,3.53l-1.82-1.07c.05-.13.1-.25.14-.38,1.08-1.36-.05-1.84-.9-2.43-1-.8-2.16-.72-3.3-.88S7.14,79.4,7,77.78a8,8,0,0,0,2.86-5.69c.47-3.5-.74-5.07-4.31-5.68A1.62,1.62,0,0,0,4.7,68.7C6.39,72.58,6.41,76.1,4,79.87c-1,1.52-.89,4.06-1.1,6.16A7.28,7.28,0,0,1,2.4,88.4c-.54,3.27.08,4.23,3,5.18,1.57.52,3.4,0,4.74,1.33l.7.62c-3.4,1.18-6.52.22-9.56-1.31L0,91.18c1.38-4.94.57-10.45,3.83-14.93,1.24-1.71.25-3.74-.39-5.54S1.9,67.39,2.5,65.46Z"/><path class="cls-6" d="M9.64,62.28c-.53-3.28.4-6.47.51-9.7,1.73-1,3.16-3,5.57-1.33.59.41.76-.63,1-1.15.6-1.3,1.38-2.22,2.9-1.23a19.14,19.14,0,0,1-.32,11C17.72,64.28,12.89,65.4,9.64,62.28Z"/><path class="cls-33" d="M9.64,62.28c5.28,3.45,9.53-.94,9.87-5.84.17-2.51.08-5,.11-7.57h1a30.59,30.59,0,0,1,.14,8.44c-.54,5.49-6.37,9.66-11,6.43C8.94,63.29,8.76,62.8,9.64,62.28Z"/><path class="cls-34" d="M22.63,37.78c-1.52-1-2.66-.14-3.73.63-1.65-2.57-.63-5.7,1-6C22.26,32,23.22,34.74,22.63,37.78Z"/><path class="cls-35" d="M17.22,77.57l.69-.58c4.88,2.14,9.77,1.37,14.67.09,1.13-.3,2.3-.44,3.45-.66l1.22.58c-.72,1.17-3,1.48-1.87,3.68a1.28,1.28,0,0,1,.67,1.2l.07.19c-.58,2.5-.07,5.08-.68,7.63-1.7,7-5.74,11.31-12.33,12.53-1.7.15-2.17,2.69-4.16,2.29a1.87,1.87,0,0,1-.18-1.69A5.53,5.53,0,0,1,21.15,101a43,43,0,0,0,7-3.85,10.66,10.66,0,0,0,4.24-6.74c.16-1.84,1.52-3.51.67-5.46a3.66,3.66,0,0,0-1.4.09c-2.35-.07-2.85,2.23-4.15,3.5-2.88,3.07-6.11,5.53-10.27,6.37a1.24,1.24,0,0,1-.47,0l-.8-.53A1.81,1.81,0,0,1,16.9,93a46.14,46.14,0,0,0,7.55-4.77,9,9,0,0,0,3.07-4.56c-2,1-3,2.62-4.37,3.73s-2.39,1.33-2.24-1.07a7.64,7.64,0,0,1,1.57-2.5c-.94.21-1.64,1.22-2.72.73l-.92-.21c.07-1.72,1.36-2.09,2.81-2.6-1.52,0-2.81,0-3.85-1l-.62-.65C16.68,79.26,17.16,78.42,17.22,77.57Z"/><path class="cls-36" d="M35.38,80.68c-2-2.46-2-2.46,1.87-3.68a42.76,42.76,0,0,0,13.58-4.83c1.44.07.83,1,.59,1.67a5,5,0,0,1-1.84,1.94c-2.87,2.58-6.56,2.82-10,3.75Z"/><path class="cls-37" d="M49.58,75.78c-.33-1.48,2.34-1.84,1.25-3.61,3.67-2.65,8.09-2.38,12.07,1.38-3.85-1.77-6.39.16-9.13,1.12C52.41,75.14,51.14,76.08,49.58,75.78Z"/><path class="cls-38" d="M44.93,79.6c0,.17,0,.35,0,.53-2.37.55-4.65,1.7-7.19,1.18A23.3,23.3,0,0,1,44.93,79.6Z"/><path class="cls-39" d="M7.21,77.83c.44,1.37,1.58.82,2.45.93,1.43.17,2.86.25,3.88,1.53-.3,1.49-1.66,1.15-2.53,1.6.37,1,1.86.74,2,2,.41,1,.91,2.23,0,3.07s-1.7-.46-2.58-.69c-1.06-.29-2.08-1-3.31-.32.6,1.43,2.18.74,3,1.61,1.57,1.6.08,2.44-.92,2.24-2.23-.44-4.42,0-6.6-.18-.79-.08-1.3-.49-.71-1.4-.38-2.66,1.53-5,.91-7.75a1.83,1.83,0,0,1,.56-1.3c2.88-3.07,2.18-6.36.77-9.82-.61-1.49-1.5-3.36,1.26-3.78C8.62,67.8,9.63,74.48,7.21,77.83Z"/><path class="cls-40" d="M1.85,88.17c.1.51.17.92.9.76a11.57,11.57,0,0,1,5.48.2c1,.26,2.7.69,1.85-1.62,1.06,0,1.52.79,2,1.56a1.88,1.88,0,0,1-.11,2.25c-.62.75-1.21.21-1.8-.11a6.52,6.52,0,0,0-4.06-1c.7,1.55,2.13,1,3,1.63,1.11.8,2.7,1.32,1,3.1a22.87,22.87,0,0,1-5.52-.63C1.43,93.41.54,91.48,1.85,88.17Z"/><path class="cls-41" d="M19.76,84.59c1.51-.36,2.4-2.43,4.43-1.77-.56,1.62-2.14,2.18-2.8,3.52-1.77,2.18-2.63,5-4.3,7.19l-1.11.9c-1,.31-1.13,0-.9-1C15.85,90,17.13,86.92,19.76,84.59Z"/><path class="cls-31" d="M17.8,80.76l4.47.66-3.43,3-2.36,1.83c-.88.84-1.23,0-1.68-.57a1.15,1.15,0,0,1,.6-1.23C17.46,84.09,15.79,81.11,17.8,80.76Z"/><path class="cls-42" d="M14.8,85.64l1.68.57c-.77,2.17-1.56,4.33-2.29,6.51-.29.86-.67,1.65-1.63,1.15-1.36-.7.15-1.22.22-1.84C13,89.75,14.16,87.78,14.8,85.64Z"/><path class="cls-43" d="M13,83.84a11.14,11.14,0,0,0-4.68-1.37c.46-1.57,1.53-.78,2.25-1,1.16.3,2.77-.28,3.08,1.68l-.1.23Z"/><path class="cls-44" d="M23.11,102.23l3.58-2q9.56-5.32,8.23-16.8c-.11-1,0-1.67,1.2-1.35,1.33,7.21-.95,13.32-5.48,18.66-1.42,1.68-3.06,3.15-3.82,5.33-.2.56-.45,1.32-1.11,1.27s-.84-1-1.2-1.57C23.82,104.67,25.22,102.7,23.11,102.23Z"/><path class="cls-45" d="M17.25,94.91c3.38-2.17,7.13-3.73,10-6.71.58.88.18,1.85.2,2.78-2.71,2.65-4.79,6-8,8.09C17.55,98.37,18.53,96,17.25,94.91Z"/><path class="cls-46" d="M19.49,99.07c2.14-3.28,5-5.84,7.79-8.49A22.22,22.22,0,0,1,32,84.44l1.12-.61c1.13,1.53.07,2.66-.69,3.78a27.17,27.17,0,0,1-4.26,4.57c-3.45,3.14-6.2,6.93-9.14,10.55,0,.6,0,1.19-.05,1.79C17.31,102.51,18.86,100.84,19.49,99.07Z"/><path class="cls-47" d="M56.76,88.89c-.94.31-.94.31-1-1.26-1.5.72-.75,2.65-1.82,3.53-1.79-2-1.69-3.65.41-7.4,0,1.45,0,2.83,1.78,3.29C56.91,87.26,56.69,88.21,56.76,88.89Z"/><path class="cls-48" d="M60.36,80c2.17,2.19,3,5.13,3.94,8,.19.58-.69.25-1.11.15l-3.45-7.41C59.91,80.46,60,80.08,60.36,80Z"/><path class="cls-49" d="M60.36,80l-.62.72-1.26-1.21c.05-.83.22-1.76,1.21-1.53S60.2,79.31,60.36,80Z"/><path class="cls-40" d="M7.21,77.83c.91-4.35.76-8.53-1.86-12.31,4.3.52,6,2.59,5.09,6.81C10,74.39,10.64,77.52,7.21,77.83Z"/><path class="cls-50" d="M17.22,77.57c1.15.87.46,1.7,0,2.54-2.54.31-4-2.13-6.36-2.65-.82-.19.26-2.07.6-3.33C13.44,75.29,15.06,76.93,17.22,77.57Z"/><path class="cls-51" d="M13.68,83.11c-.71-1.17-2.14-.94-3.08-1.68l2.94-1.14a2,2,0,0,1,1.8,2.49C15.13,83.85,14.28,83.17,13.68,83.11Z"/><path class="cls-52" d="M19,102.73c2-5.34,6.42-8.59,10.14-12.45,1.75-1.82,4.08-3.36,4-6.45,1.81.46,1,1.89.85,2.9a29.76,29.76,0,0,1-.86,3.8c-1.08,3-3.42,4.91-5.82,6.64-2,1.44-4,2.92-6,4.29C20.46,101.83,20.11,103,19,102.73Z"/><path class="cls-53" d="M17.09,93.53c.75-2.83,1.66-5.57,4.3-7.19-.1,1.26,0,1.92,1.25.68,1.71-1.72,3.11-3.91,5.73-4.45C28.36,86.84,23.8,90.46,17.09,93.53Z"/><path class="cls-54" d="M21.24,101.46a12.51,12.51,0,0,1,4.31-4,29.46,29.46,0,0,0,7.53-7,10.63,10.63,0,0,1-5.36,7.79C25.63,99.51,23.65,101,21.24,101.46Z"/><path class="cls-55" d="M32,84.44c-.79,2.69-2.87,4.3-4.69,6.14-1.24-.78.2-1.59,0-2.38C28.54,86.56,28.69,83.38,32,84.44Z"/><path class="cls-56" d="M33.5,80.68a1.88,1.88,0,0,1-1.69,2c-1.71.32-1.47-.38-.9-1.46,0-.08-.14-.39-.27-.44-.69-.27-2.16.11-1.41-1.38.41-.83,1.64-1.06,2.6-.93C33,78.64,33.3,79.65,33.5,80.68Z"/><path class="cls-57" d="M18.6,79.27c4.2-.26,7.94.31,9.28,1.42C25,79.55,21.94,80.84,18.6,79.27Z"/></g></g></g></svg>